<?xml version="1.0" encoding="UTF-8"?>
<svg width="1000px" height="1000px" viewBox="0 0 1000 1000" version="1.1" xmlns="http://www.w3.org/2000/svg" xmlns:xlink="http://www.w3.org/1999/xlink">
    <!-- Generator: Sketch 54.1 (76490) - https://sketchapp.com -->
    <title>编组 166</title>
    <desc>Created with Sketch.</desc>
    <g id="上传" stroke="none" stroke-width="1" fill="none" fill-rule="evenodd">
        <g id="画板" transform="translate(-1652.000000, -10979.000000)">
            <g id="编组-166" transform="translate(1652.000000, 10979.000000)">
                <rect id="矩形复制-98" x="0" y="0" width="1000" height="1000"></rect>
                <g id="编组-289" transform="translate(85.000000, 98.000000)">
                    <polygon id="Path" fill="#405FD3" points="335 171.067863 265.004389 115 195 171.067863 195 256 335 256"></polygon>
                    <rect id="Rectangle" fill="#4CDBC4" x="142" y="0" width="123" height="90"></rect>
                    <path d="M156,16.5 L252,16.5" id="Path" stroke="#FFFFFF" stroke-width="5.69999993"></path>
                    <path d="M156,30.5 L252,30.5" id="Path" stroke="#FFFFFF" stroke-width="5.69999993"></path>
                    <path d="M156,44.5 L252,44.5" id="Path" stroke="#FFFFFF" stroke-width="5.69999993"></path>
                    <path d="M156,58.5 L252,58.5" id="Path" stroke="#FFFFFF" stroke-width="5.69999993"></path>
                    <rect id="Rectangle" fill="#4CDBC4" x="173" y="59" width="93" height="31"></rect>
                    <path d="M204,59 L298.007143,59 C305.696526,59 313.070973,62.0499644 318.508188,67.478936 C323.945403,72.9079075 327,80.2711731 327,87.9488983 L327,225 L204,225 L204,59 Z" id="Path" fill="#4CDBC4"></path>
                    <path d="M171.132424,59 L174.841148,59 C190.945137,59 204,72.0511539 204,88.1505682 L204,90 L142,90 L142,88.1505682 C141.999993,72.0614662 155.038756,59.0145823 171.132424,59 Z" id="Path" fill="#1A2056"></path>
                    <path d="M218,86.5 L314,86.5" id="Path" stroke="#FFFFFF" stroke-width="5.69999993"></path>
                    <path d="M218,101.5 L314,101.5" id="Path" stroke="#FFFFFF" stroke-width="5.69999993"></path>
                    <path d="M218,117.5 L314,117.5" id="Path" stroke="#FFFFFF" stroke-width="5.69999993"></path>
                    <path d="M218,132.5 L314,132.5" id="Path" stroke="#FFFFFF" stroke-width="5.69999993"></path>
                    <path d="M218,148.5 L314,148.5" id="Path" stroke="#FFFFFF" stroke-width="5.69999993"></path>
                    <path d="M218,164.5 L314,164.5" id="Path" stroke="#FFFFFF" stroke-width="5.69999993"></path>
                    <path d="M218,179.5 L314,179.5" id="Path" stroke="#FFFFFF" stroke-width="5.69999993"></path>
                    <path d="M218,195.5 L314,195.5" id="Path" stroke="#FFFFFF" stroke-width="5.69999993"></path>
                    <path d="M437,347 L437,392.369787 L409.827972,392.369787 C404.182966,392.367455 398.768496,394.612862 394.776874,398.611548 C390.785252,402.610235 388.543812,408.034287 388.546138,413.689283 C388.546138,425.458867 379.02186,435 367.273069,435 C355.524277,435 346,425.458867 346,413.689283 L346,347 L437,347 Z" id="Path" fill="#6CA1FF"></path>
                    <path d="M357,361.5 L426,361.5" id="Path" stroke="#FFFFFF" stroke-width="5.69999993"></path>
                    <path d="M357,375.5 L426,375.5" id="Path" stroke="#FFFFFF" stroke-width="5.69999993"></path>
                    <path d="M357,389.5 L426,389.5" id="Path" stroke="#FFFFFF" stroke-width="5.69999993"></path>
                    <path d="M357,404.5 L426,404.5" id="Path" stroke="#FFFFFF" stroke-width="5.69999993"></path>
                    <path d="M522,418.971503 L522,546 L458.474481,545.999999 C451.245104,546.002327 444.311029,543.12011 439.198267,537.98765 C434.085505,532.85519 431.213048,525.893092 431.213048,518.633533 L431.213048,413.310383 C431.215367,407.659325 428.981451,402.238924 425.002982,398.242199 C421.024512,394.245473 415.627565,391.999999 410,392 L495.114406,392 C509.952675,391.999993 521.985529,404.071295 522,418.971503 Z" id="Path" fill="#6CA1FF"></path>
                    <path d="M430.995587,413.72039 L430.995587,435 L367,435 C378.779644,435 388.328933,425.472794 388.328933,413.72039 C388.172137,406.013377 392.203605,398.823903 398.868636,394.92453 C405.533666,391.025157 413.790854,391.025157 420.455885,394.92453 C427.120916,398.823903 431.152383,406.013377 430.995587,413.72039 Z" id="Path" fill="#405FD3"></path>
                    <rect id="Rectangle" fill="#6CA1FF" x="483" y="264" width="133" height="80"></rect>
                    <path d="M564,302 L609,332" id="Path" stroke="#FFFFFF" stroke-width="3.79999995"></path>
                    <polyline id="Path" stroke="#FFFFFF" stroke-width="3.79999995" points="609 272 549.49122 312 490 272"></polyline>
                    <rect id="Rectangle" fill="#1A2056" x="655" y="286" width="133" height="80"></rect>
                    <path d="M662,355 L707,325" id="Path" stroke="#FFFFFF" stroke-width="3.79999995"></path>
                    <path d="M736,325 L781,355" id="Path" stroke="#FFFFFF" stroke-width="3.79999995"></path>
                    <polyline id="Path" stroke="#FFFFFF" stroke-width="3.79999995" points="781 295 721.5 335 662 295"></polyline>
                    <rect id="Rectangle" fill="#6CA1FF" x="401" y="101" width="323" height="110" rx="16.3114998"></rect>
                    <path d="M425,128.5 L598,128.5" id="Path" stroke="#FFFFFF" stroke-width="14.2499998"></path>
                    <path d="M425,153.5 L686,153.5" id="Path" stroke="#FFFFFF" stroke-width="5.69999993"></path>
                    <path d="M425,170.5 L702,170.5" id="Path" stroke="#FFFFFF" stroke-width="5.69999993"></path>
                    <path d="M425,186.5 L608,186.5" id="Path" stroke="#FFFFFF" stroke-width="5.69999993"></path>
                    <polygon id="Path" fill="#6CA1FF" points="335 256 195 256 195 171 265.004389 217.764949 335 171"></polygon>
                    <polyline id="Path" stroke="#FFFFFF" stroke-width="4.74999994" fill="#6CA1FF" points="203 243 264.504367 207 326 243"></polyline>
                    <circle id="Oval" fill="#405FD3" cx="157" cy="245" r="7"></circle>
                    <circle id="Oval" fill="#405FD3" cx="119" cy="245" r="7"></circle>
                    <circle id="Oval" fill="#405FD3" cx="119" cy="207" r="7"></circle>
                    <circle id="Oval" fill="#405FD3" cx="157" cy="207" r="7"></circle>
                    <circle id="Oval" fill="#405FD3" cx="303" cy="485" r="7"></circle>
                    <circle id="Oval" fill="#405FD3" cx="265" cy="485" r="7"></circle>
                    <circle id="Oval" fill="#405FD3" cx="265" cy="447" r="7"></circle>
                    <circle id="Oval" fill="#405FD3" cx="303" cy="447" r="7"></circle>
                    <circle id="Oval" fill="#405FD3" cx="228" cy="485" r="7"></circle>
                    <circle id="Oval" fill="#405FD3" cx="228" cy="447" r="7"></circle>
                    <rect id="Rectangle" fill="#4CDBC4" x="13" y="283" width="295" height="110" rx="16.3114998"></rect>
                    <rect id="Rectangle" fill="#6CA1FF" x="371" y="23" width="215" height="37" rx="14.6949115"></rect>
                    <path d="M36,310.5 L194,310.5" id="Path" stroke="#FFFFFF" stroke-width="14.2499998"></path>
                    <path d="M413,41.5 L526,41.5" id="Path" stroke="#FFFFFF" stroke-width="12.3499998"></path>
                    <path d="M35,335.5 L274,335.5" id="Path" stroke="#FFFFFF" stroke-width="5.69999993"></path>
                    <path d="M35,351.5 L288,351.5" id="Path" stroke="#FFFFFF" stroke-width="5.69999993"></path>
                    <path d="M35,368.5 L203,368.5" id="Path" stroke="#FFFFFF" stroke-width="5.69999993"></path>
                    <path d="M676.999876,453.999496 C676.999876,469.369616 667.740671,483.22613 653.540195,489.107198 C639.339719,494.988267 622.994816,491.735588 612.127761,480.866013 C601.260706,469.996439 598.011812,453.65078 603.896166,439.451662 C609.78052,425.252543 623.639174,415.996545 639.009289,416.000103 C649.093711,415.976666 658.771724,419.972918 665.90168,427.104528 C673.031637,434.236137 677.025648,443.915077 676.999876,453.999496 Z" id="Path" fill="#405FD3"></path>
                    <circle id="Oval" fill="#FFFFFF" cx="638.5" cy="447.5" r="14.5"></circle>
                    <path d="M665,481.038354 C650.353263,495.653882 626.646738,495.653882 612,481.038354 C616.294551,470.153036 626.803019,463 638.5,463 C650.196982,463 660.705451,470.153036 665,481.038354 Z" id="Path" fill="#FFFFFF"></path>
                    <rect id="Rectangle" fill="#4CDBC4" x="675" y="264" width="133" height="80"></rect>
                    <path d="M682,332 L727,302" id="Path" stroke="#FFFFFF" stroke-width="3.79999995"></path>
                    <path d="M756,302 L801,332" id="Path" stroke="#FFFFFF" stroke-width="3.79999995"></path>
                    <polyline id="Path" stroke="#FFFFFF" stroke-width="3.79999995" points="801 272 741.49561 312 682 272"></polyline>
                    <circle id="Oval" fill="#FFFFFF" cx="391.5" cy="41.5" r="10.5"></circle>
                    <ellipse id="Oval" fill="#AFB3C6" cx="415" cy="800.5" rx="415" ry="3.5"></ellipse>
                    <path d="M490,332 L535,302" id="Path" stroke="#515256" stroke-width="2.84999996" stroke-linecap="round"></path>
                    <path d="M532.441124,415 L517.427794,409.354734 L529.208842,329.752114 L506,284.861312 L537.18357,266 C537.18357,266 554.086814,309.306625 554.934625,323.590461 C556.409464,348.613428 532.441124,415 532.441124,415 Z" id="Path" fill="#F9AA8F"></path>
                    <polygon id="Path" fill="#23A295" points="546 275.545853 504.760894 291 491 241.952172 523.376011 231"></polygon>
                    <path d="M312,235 L317,279" id="Path" stroke="#1D294F" stroke-width="7.5999999" stroke-linecap="round"></path>
                    <path d="M311,225 L313,238" id="Path" stroke="#1D294F" stroke-width="4.74999994" stroke-linecap="round"></path>
                    <ellipse id="Oval" fill="#4CDBC4" transform="translate(308.591203, 197.071822) rotate(-3.180000) translate(-308.591203, -197.071822) " cx="308.591203" cy="197.071822" rx="21.2752458" ry="26.0770994"></ellipse>
                    <path d="M291,185.5 L311,185.5" id="Path" stroke="#FFFFFF" stroke-width="14.2499998"></path>
                    <path d="M292,210.5 L311,210.5" id="Path" stroke="#FFFFFF" stroke-width="14.2499998"></path>
                    <ellipse id="Oval" stroke="#1D294F" stroke-width="7.5999999" stroke-linecap="round" transform="translate(308.591203, 197.071822) rotate(-3.180000) translate(-308.591203, -197.071822) " cx="308.591203" cy="197.071822" rx="21.2752458" ry="26.0770994"></ellipse>
                    <path d="M482,800 L572,800 L568.780105,747 L542.855148,755.724281 L545.717278,774.516379 C545.717278,774.516379 503.099476,784.671441 482,800 Z" id="Path" fill="#0D0B6D"></path>
                    <polygon id="Path" fill="#F9AA8F" points="569.957528 751 571 774.311474 546.415059 775 544 759.00298"></polygon>
                    <path d="M421,800 L506,800 L502.774807,747 L476.798458,755.724281 L479.674036,774.516379 C479.674036,774.516379 442.13419,784.671441 421,800 Z" id="Path" fill="#0D0B6D"></path>
                    <polygon id="Path" fill="#F9AA8F" points="502.957864 751 504 774.311474 479.422966 775 477 759.00298"></polygon>
                    <path d="M577,762 L535.308317,758.796063 L511.976354,564.555184 L492,347.939267 L540.778657,344 C540.778657,344 560.545286,363.258639 564.311607,413.970136 C567.44875,456.216587 568.79449,559.591706 568.79449,559.591706 L577,762 Z" id="Path" fill="#0D439B"></path>
                    <path d="M437,290.952861 C437,290.952861 394.887302,336.358005 375.043207,330.473779 C349.076346,322.806722 314,265.273046 314,265.273046 L330.936438,257 L378.600914,298.084191 L422.523212,257.922155 L437,290.952861 Z" id="Path" fill="#F9AA8F"></path>
                    <path d="M510.782762,758.596026 L469.317116,762 L444.523403,551.846141 C444.523403,551.846141 440.064732,480.72145 446.40304,405.772758 C449.900037,364.84631 457.3399,349.996581 457.3399,349.996581 L514,345 L504.829125,553.263735 L510.782762,758.596026 Z" id="Path" fill="#0D439B"></path>
                    <path d="M390,276.178238 L411.00626,322.620881 L436.388824,298.560974 C436.388824,298.560974 437.456642,305.295992 443.539705,316.210759 C449.40667,327.02215 454.318158,338.328462 458.21783,350 L541,343.159611 C541,343.159611 534.715627,317.694746 533.639056,299.254673 C532.422444,278.51398 535.450846,224.923614 511.967598,216.880228 C491.661546,209.925687 486.121145,217.055848 457.858973,222.587871 C431.242291,227.812559 390,276.178238 390,276.178238 Z" id="Path" fill="#4CDBC4"></path>
                    <polygon id="Rectangle" fill="#2B2A38" transform="translate(490.572558, 760.940420) rotate(-1.510000) translate(-490.572558, -760.940420) " points="463.582093 753.243204 517.562917 753.243575 517.563023 768.637635 463.582198 768.637265"></polygon>
                    <polygon id="Rectangle" fill="#2B2A38" transform="translate(556.732597, 759.329260) rotate(-1.510000) translate(-556.732597, -759.329260) " points="529.742132 751.632044 583.722956 751.632415 583.723061 767.026475 529.742238 767.026104"></polygon>
                    <path d="M521.997812,160.556212 C522.261024,187.618682 498.747398,209.760703 469.478197,209.997939 C442.279599,210.226389 419.634572,191.43203 416.397062,167.031874 C416.149928,165.179129 416.018067,163.312786 416.002243,161.44365 C415.861864,147.183135 422.319337,134.293315 432.751316,125.260776 C442.728557,116.728812 455.410896,112.029078 468.530633,112.001923 C497.79106,111.764688 521.743374,133.502529 521.997812,160.556212 Z" id="Path" fill="#240040"></path>
                    <path d="M456.40875,222.519651 C456.40875,222.519651 431.720444,220.248908 426.507305,213.279476 C411.844264,193.646288 431.101492,141 431.101492,141 L488.01885,175.244542 C488.01885,175.244542 497.154919,222.641922 496.998002,222.68559 L460.506033,233 L456.40875,222.519651 Z" id="Path" fill="#F9AA8F"></path>
                    <path d="M491.990914,179.690892 C481.959019,192.154967 463.977153,196.143121 448.367102,190.472055 C447.11876,190.03158 445.895841,189.52242 444.703968,188.946914 C442.735098,188.029239 440.845823,186.950354 439.055536,185.72133 C421.934552,174.019824 417.858546,152.352317 429.972366,137.311281 C431.125369,135.882824 432.394652,134.551835 433.767269,133.331892 C446.58385,121.89334 467.438245,120.692512 482.960451,131.272076 C499.923315,142.859635 504.043244,164.229127 492.377432,179.252633 C492.228096,179.40164 492.105112,179.541883 491.990914,179.690892 Z" id="Path" fill="#240040"></path>
                    <path d="M515.878632,326.250812 L460.816577,330 L441,161.457347 L520.956111,156 L538.9303,297.895386 C539.951909,312.646865 529.622316,325.313516 515.878632,326.250812 Z" id="Path" fill="#240040"></path>
                    <polygon id="Path" fill="#101016" points="518 410 512.005449 568 508 517.660852"></polygon>
                    <path d="M440.344049,191.304379 C440.344049,191.304379 435.79802,181.595989 443.427291,179.357618 C449.112019,177.689811 452.379203,182.236779 453.368994,185.133494 C456.715012,194.894552 445.739722,199.748747 444.163065,208" id="Path" fill="#F9AA8F"></path>
                    <path d="M335,259.51159 L332.435557,254.476285 C332.435557,254.476285 328.029298,245.522693 325.385543,242.110554 C321.111472,236.560375 315.691773,240.574656 315.691773,240.574656 C315.691773,240.574656 305.35469,234.998296 302.781434,236.158947 C295.678544,239.370372 296.92111,265.32357 303.662686,267.775773 C308.879696,269.669466 312.11389,272.078035 318.846654,273.788467 C321.70191,274.512783 325.394355,273.133965 327.535797,273.264865" id="Path" fill="#F9AA8F"></path>
                    <polygon id="Path" fill="#F28A66" points="408 317.312692 393 285 401.202985 322"></polygon>
                </g>
            </g>
        </g>
    </g>
</svg>