<svg width="148" height="132" viewBox="0 0 148 132" fill="none" xmlns="http://www.w3.org/2000/svg">
<path d="M139.646 48.8994L132.726 52.9448L128.722 47.5915L132.018 39.514L140.109 37.1579L139.482 20.0088L134.361 3.56826L120.318 0.953064L106.887 5.35268L94.37 16.0315L88.8125 26.0158L83.8682 27.2146L81.3753 36.0548L74.1696 38.2748L57.6067 33.4119L54.3102 41.6256L46.0832 49.485L36.1809 48.2319L38.0334 42.4973L33.1163 31.5594L29.4252 29.0123L31.4686 65.8708L23.7453 72.1361L8.48342 72.8031L4.61804 66.0006L0.153809 70.0119L17.7655 100.237L19.468 110.18L15.913 112.196L25.4478 127.261L35.4182 131.047L43.1825 125.967L49.8298 125.898L56.8988 121.567L65.9703 121.049L76.295 122.861L83.1598 118.775L90.2288 118.311L122.17 91.6004L131.378 76.5081L142.411 66.7281L147.846 49.6338L139.646 48.8994ZM97.6388 83.4554L94.4513 76.5086L100.976 69.2758L110.892 68.0088L115.918 73.8658L112.091 80.2269L103.769 87.0104L97.6388 83.4554Z" fill="#0D439B"/>
</svg>
